<?xml version="1.0" encoding="utf-8"?>
<!-- Generator: Adobe Illustrator 15.0.0, SVG Export Plug-In . SVG Version: 6.00 Build 0)  -->
<!DOCTYPE svg PUBLIC "-//W3C//DTD SVG 1.1//EN" "http://www.w3.org/Graphics/SVG/1.1/DTD/svg11.dtd">
<svg version="1.1" id="Layer_1" xmlns="http://www.w3.org/2000/svg" xmlns:xlink="http://www.w3.org/1999/xlink" x="0px" y="0px"
	 width="1165px" height="156px" viewBox="0 0 1165 156" enable-background="new 0 0 1165 156" xml:space="preserve">
<g>
	<path fill="#FFFFFF" d="M293.56,61.97l-39.347,79.527h-19.362l-39.14-79.527v91.603h-32.477V8.049h43.927l37.474,79.944
		l37.682-79.944h43.72v145.523H293.56V61.97z"/>
	<path fill="#FFFFFF" d="M457.194,153.572l-13.532-31.438h-60.999l-13.532,31.438h-34.559L397.444,8.049h31.437l62.873,145.523
		H457.194L457.194,153.572z M413.266,51.352l-18.32,42.262h36.433L413.266,51.352z"/>
	<path fill="#FFFFFF" d="M605.214,8.049v28.938h-72.449v29.979h65.162v27.688h-65.162v30.188h74.74v28.729H500.288V8.049H605.214z"
		/>
	<path fill="#FFFFFF" d="M662.151,37.091c-3.122,2.57-4.685,5.969-4.685,10.201c0,4.235,1.906,7.599,5.726,10.097
		c3.815,2.498,12.628,5.449,26.439,8.848c13.81,3.402,24.53,8.503,32.165,15.301c7.631,6.802,11.45,16.728,11.45,29.771
		c0,13.047-4.894,23.629-14.678,31.748s-22.659,12.18-38.618,12.18c-23.041,0-43.791-8.535-62.248-25.606l19.361-23.733
		c15.683,13.74,30.187,20.61,43.511,20.61c5.966,0,10.649-1.28,14.053-3.853c3.399-2.565,5.101-6.036,5.101-10.408
		s-1.806-7.84-5.412-10.409c-3.61-2.565-10.758-5.169-21.443-7.808c-16.936-4.023-29.321-9.264-37.161-15.718
		c-7.843-6.454-11.763-16.583-11.763-30.396c0-13.809,4.961-24.462,14.886-31.957c9.921-7.495,22.309-11.242,37.161-11.242
		c9.714,0,19.43,1.666,29.146,4.997c9.714,3.331,18.182,8.051,25.398,14.157l-16.446,23.733
		c-12.631-9.577-25.679-14.365-39.14-14.365C669.542,33.24,665.274,34.525,662.151,37.091z"/>
	<path fill="#FFFFFF" d="M812.98,36.154v117.418h-32.478V36.154h-41.222V8.049h114.92v28.105H812.98z"/>
	<path fill="#FFFFFF" d="M987.646,56.349c0,23.316-9.23,38.377-27.688,45.176l36.849,52.048h-39.972l-32.27-46.427h-22.483v46.427
		h-32.478V8.049h55.17c22.619,0,38.755,3.819,48.402,11.45C982.823,27.134,987.646,39.417,987.646,56.349z M948.509,73.628
		c4.023-3.608,6.037-9.333,6.037-17.176c0-7.839-2.082-13.22-6.246-16.134c-4.163-2.915-11.45-4.372-21.858-4.372h-24.357v43.095
		h23.732C936.918,79.041,944.48,77.239,948.509,73.628z"/>
	<path fill="#FFFFFF" d="M1133.587,133.482c-14.713,14.363-32.825,21.547-54.337,21.547c-21.515,0-39.627-7.184-54.337-21.547
		c-14.713-14.365-22.068-32.233-22.068-53.608c0-21.372,7.355-39.244,22.068-53.608c14.71-14.365,32.822-21.547,54.337-21.547
		c21.512,0,39.624,7.182,54.337,21.547c14.71,14.365,22.068,32.236,22.068,53.608
		C1155.655,101.249,1148.297,119.117,1133.587,133.482z M1122.553,79.979c0-12.977-4.163-24.045-12.49-33.207
		c-8.327-9.16-18.564-13.74-30.707-13.74c-12.146,0-22.382,4.58-30.709,13.74c-8.326,9.16-12.49,20.23-12.49,33.207
		c0,12.979,4.164,24.014,12.49,33.103c8.327,9.092,18.562,13.636,30.709,13.636c12.143,0,22.38-4.544,30.707-13.636
		C1118.39,103.991,1122.553,92.957,1122.553,79.979z"/>
</g>
<g>
	<rect x="11.501" y="139.656" fill="#C8C83D" width="41.563" height="13.76"/>
	<rect x="11.501" y="115.936" fill="#C8C83D" width="41.563" height="13.76"/>
	<rect x="11.501" y="92.214" fill="#C8C83D" width="41.563" height="13.757"/>
	<rect x="11.501" y="70.388" fill="#C8C83D" width="41.563" height="13.758"/>
	<rect x="11.501" y="47.614" fill="#C8C83D" width="41.563" height="13.759"/>
	<rect x="11.501" y="25.79" fill="#C8C83D" width="41.563" height="13.761"/>
	<rect x="59.92" y="139.656" fill="#C8C83D" width="41.564" height="13.76"/>
	<rect x="59.92" y="115.936" fill="#C8C83D" width="41.564" height="13.76"/>
	<rect x="59.92" y="92.214" fill="#C8C83D" width="41.564" height="13.757"/>
	<rect x="59.92" y="70.388" fill="#C8C83D" width="41.564" height="13.758"/>
	<rect x="108.339" y="139.656" fill="#C8C83D" width="41.564" height="13.76"/>
	<rect x="108.339" y="115.936" fill="#C8C83D" width="41.564" height="13.76"/>
	<rect x="108.339" y="92.214" fill="#C8C83D" width="41.564" height="13.757"/>
	<rect x="108.339" y="70.388" fill="#C8C83D" width="41.564" height="13.758"/>
	<rect x="108.339" y="47.614" fill="#C8C83D" width="41.564" height="13.759"/>
</g>
</svg>
